<mxfile host="app.diagrams.net" modified="2022-11-23T18:09:20.049Z" agent="5.0 (Windows NT 10.0; Win64; x64) AppleWebKit/537.36 (KHTML, like Gecko) Chrome/106.0.0.0 YaBrowser/22.11.0.2424 Yowser/2.5 Safari/537.36" version="20.6.0" etag="fxF4WdXS27y7f_fEiEMe" type="github">
  <diagram id="xlFblF-9puemhglgput3" name="Страница 1">
    <mxGraphModel dx="1414" dy="787" grid="1" gridSize="10" guides="1" tooltips="1" connect="1" arrows="1" fold="1" page="1" pageScale="1" pageWidth="827" pageHeight="1169" math="0" shadow="0">
      <root>
        <mxCell id="0" />
        <mxCell id="1" value="1" style="locked=1;" parent="0" />
        <mxCell id="WEYUvmwVzYbA_VXoz2B9-1" value="Шаги" style="swimlane;html=1;childLayout=stackLayout;resizeParent=1;resizeParentMax=0;horizontal=0;startSize=20;horizontalStack=0;whiteSpace=wrap;fillColor=#d5e8d4;strokeColor=#82b366;" vertex="1" parent="1">
          <mxGeometry x="34" y="70" width="760" height="670" as="geometry" />
        </mxCell>
        <mxCell id="WEYUvmwVzYbA_VXoz2B9-2" value="ПоместитьНоситель" style="swimlane;html=1;startSize=20;horizontal=0;fillColor=#d5e8d4;strokeColor=#82b366;" vertex="1" parent="WEYUvmwVzYbA_VXoz2B9-1">
          <mxGeometry x="20" width="740" height="670" as="geometry" />
        </mxCell>
        <mxCell id="WEYUvmwVzYbA_VXoz2B9-11" value="2" style="" parent="0" />
        <mxCell id="WEYUvmwVzYbA_VXoz2B9-12" value="Пользователь" style="swimlane;startSize=20;whiteSpace=wrap;html=1;fillColor=#d5e8d4;strokeColor=#82b366;" vertex="1" parent="WEYUvmwVzYbA_VXoz2B9-11">
          <mxGeometry x="74" y="50" width="360" height="690" as="geometry" />
        </mxCell>
        <mxCell id="WEYUvmwVzYbA_VXoz2B9-15" value="Подтверждение размещения путем сканирования адреса." style="points=[[0.25,0,0],[0.5,0,0],[0.75,0,0],[1,0.25,0],[1,0.5,0],[1,0.75,0],[0.75,1,0],[0.5,1,0],[0.25,1,0],[0,0.75,0],[0,0.5,0],[0,0.25,0]];shape=mxgraph.bpmn.task;whiteSpace=wrap;rectStyle=rounded;size=10;html=1;taskMarker=abstract;fillColor=#d5e8d4;strokeColor=#82b366;" vertex="1" parent="WEYUvmwVzYbA_VXoz2B9-12">
          <mxGeometry x="16" y="250" width="280" height="90" as="geometry" />
        </mxCell>
        <mxCell id="WEYUvmwVzYbA_VXoz2B9-19" value="Запуск Этапа&amp;nbsp;" style="points=[[0.145,0.145,0],[0.5,0,0],[0.855,0.145,0],[1,0.5,0],[0.855,0.855,0],[0.5,1,0],[0.145,0.855,0],[0,0.5,0]];shape=mxgraph.bpmn.event;html=1;verticalLabelPosition=bottom;labelBackgroundColor=#ffffff;verticalAlign=top;align=center;perimeter=ellipsePerimeter;outlineConnect=0;aspect=fixed;outline=standard;symbol=general;fillColor=#dae8fc;strokeColor=#6c8ebf;fontStyle=1" vertex="1" parent="WEYUvmwVzYbA_VXoz2B9-12">
          <mxGeometry x="56" y="30" width="70" height="70" as="geometry" />
        </mxCell>
        <mxCell id="WEYUvmwVzYbA_VXoz2B9-13" value="Система" style="swimlane;startSize=20;whiteSpace=wrap;html=1;fillColor=#d5e8d4;strokeColor=#82b366;" vertex="1" parent="WEYUvmwVzYbA_VXoz2B9-11">
          <mxGeometry x="434" y="50" width="360" height="690" as="geometry" />
        </mxCell>
        <mxCell id="WEYUvmwVzYbA_VXoz2B9-14" value="Открытие формы с информацией о зоне и адресом размещения носителя." style="points=[[0.25,0,0],[0.5,0,0],[0.75,0,0],[1,0.25,0],[1,0.5,0],[1,0.75,0],[0.75,1,0],[0.5,1,0],[0.25,1,0],[0,0.75,0],[0,0.5,0],[0,0.25,0]];shape=mxgraph.bpmn.task;whiteSpace=wrap;rectStyle=rounded;size=10;html=1;taskMarker=abstract;fillColor=#d5e8d4;strokeColor=#82b366;" vertex="1" parent="WEYUvmwVzYbA_VXoz2B9-13">
          <mxGeometry x="45" y="100" width="280" height="100" as="geometry" />
        </mxCell>
        <mxCell id="WEYUvmwVzYbA_VXoz2B9-21" value="&lt;ol&gt;&lt;li&gt;Создание операций&amp;nbsp; перемещения в документе.&lt;/li&gt;&lt;li&gt;Завершение&amp;nbsp; работы возвратом на предыдущий этап процесса.&lt;/li&gt;&lt;/ol&gt;" style="points=[[0.25,0,0],[0.5,0,0],[0.75,0,0],[1,0.25,0],[1,0.5,0],[1,0.75,0],[0.75,1,0],[0.5,1,0],[0.25,1,0],[0,0.75,0],[0,0.5,0],[0,0.25,0]];shape=mxgraph.bpmn.task;whiteSpace=wrap;rectStyle=rounded;size=10;html=1;taskMarker=abstract;fillColor=#d5e8d4;strokeColor=#82b366;align=left;" vertex="1" parent="WEYUvmwVzYbA_VXoz2B9-13">
          <mxGeometry x="40" y="400" width="280" height="110" as="geometry" />
        </mxCell>
        <mxCell id="WEYUvmwVzYbA_VXoz2B9-24" value="Завершение Этапа&amp;nbsp;" style="points=[[0.145,0.145,0],[0.5,0,0],[0.855,0.145,0],[1,0.5,0],[0.855,0.855,0],[0.5,1,0],[0.145,0.855,0],[0,0.5,0]];shape=mxgraph.bpmn.event;html=1;verticalLabelPosition=bottom;labelBackgroundColor=#ffffff;verticalAlign=top;align=center;perimeter=ellipsePerimeter;outlineConnect=0;aspect=fixed;outline=standard;symbol=general;fillColor=#dae8fc;strokeColor=#6c8ebf;fontStyle=1" vertex="1" parent="WEYUvmwVzYbA_VXoz2B9-13">
          <mxGeometry x="145" y="580" width="70" height="70" as="geometry" />
        </mxCell>
        <mxCell id="WEYUvmwVzYbA_VXoz2B9-25" value="" style="edgeStyle=elbowEdgeStyle;fontSize=12;html=1;endFill=0;startFill=0;endSize=6;startSize=6;endArrow=openThin;startArrow=none;rounded=0;fillColor=#dae8fc;strokeColor=#6c8ebf;strokeWidth=2;" edge="1" parent="WEYUvmwVzYbA_VXoz2B9-13" source="WEYUvmwVzYbA_VXoz2B9-21" target="WEYUvmwVzYbA_VXoz2B9-24">
          <mxGeometry width="160" relative="1" as="geometry">
            <mxPoint x="180" y="440" as="sourcePoint" />
            <mxPoint x="179" y="550" as="targetPoint" />
            <Array as="points">
              <mxPoint x="180" y="450" />
              <mxPoint x="160" y="460" />
            </Array>
          </mxGeometry>
        </mxCell>
        <mxCell id="WEYUvmwVzYbA_VXoz2B9-16" value="" style="edgeStyle=orthogonalEdgeStyle;fontSize=12;html=1;endFill=0;startFill=0;endSize=6;startSize=6;endArrow=openThin;startArrow=none;rounded=0;fillColor=#dae8fc;strokeColor=#6c8ebf;strokeWidth=2;" edge="1" parent="WEYUvmwVzYbA_VXoz2B9-11" source="WEYUvmwVzYbA_VXoz2B9-14" target="WEYUvmwVzYbA_VXoz2B9-15">
          <mxGeometry width="160" relative="1" as="geometry">
            <mxPoint x="620" y="270" as="sourcePoint" />
            <mxPoint x="454" y="220" as="targetPoint" />
            <Array as="points">
              <mxPoint x="620" y="270" />
              <mxPoint x="220" y="270" />
            </Array>
          </mxGeometry>
        </mxCell>
        <mxCell id="WEYUvmwVzYbA_VXoz2B9-18" value="РазмещениеПроцесс" style="swimlane;html=1;startSize=30;fontStyle=1;collapsible=0;horizontal=1;swimlaneLine=0;fillColor=#d5e8d4;whiteSpace=wrap;strokeColor=#82b366;" vertex="1" parent="WEYUvmwVzYbA_VXoz2B9-11">
          <mxGeometry x="74" y="20" width="720" height="30" as="geometry" />
        </mxCell>
        <mxCell id="WEYUvmwVzYbA_VXoz2B9-20" value="" style="edgeStyle=elbowEdgeStyle;fontSize=12;html=1;endFill=0;startFill=0;endSize=6;startSize=6;endArrow=openThin;startArrow=none;rounded=0;exitX=1;exitY=0.5;exitDx=0;exitDy=0;exitPerimeter=0;fillColor=#dae8fc;strokeColor=#6c8ebf;strokeWidth=2;" edge="1" parent="WEYUvmwVzYbA_VXoz2B9-11" source="WEYUvmwVzYbA_VXoz2B9-19" target="WEYUvmwVzYbA_VXoz2B9-14">
          <mxGeometry width="160" relative="1" as="geometry">
            <mxPoint x="707" y="499.5" as="sourcePoint" />
            <mxPoint x="640" y="210" as="targetPoint" />
            <Array as="points">
              <mxPoint x="620" y="120" />
              <mxPoint x="570" y="120" />
              <mxPoint x="610" y="160" />
              <mxPoint x="640" y="150" />
            </Array>
          </mxGeometry>
        </mxCell>
        <mxCell id="WEYUvmwVzYbA_VXoz2B9-27" value="" style="edgeStyle=orthogonalEdgeStyle;fontSize=12;html=1;endFill=0;startFill=0;endSize=6;startSize=6;endArrow=openThin;startArrow=none;rounded=0;fillColor=#dae8fc;strokeColor=#6c8ebf;strokeWidth=2;" edge="1" parent="WEYUvmwVzYbA_VXoz2B9-11" source="WEYUvmwVzYbA_VXoz2B9-15" target="WEYUvmwVzYbA_VXoz2B9-21">
          <mxGeometry width="160" relative="1" as="geometry">
            <mxPoint x="220" y="380" as="sourcePoint" />
            <mxPoint x="630" y="440" as="targetPoint" />
            <Array as="points">
              <mxPoint x="220" y="420" />
              <mxPoint x="614" y="420" />
            </Array>
          </mxGeometry>
        </mxCell>
      </root>
    </mxGraphModel>
  </diagram>
</mxfile>
